<?xml version="1.0"?>
<svg xmlns="http://www.w3.org/2000/svg" xmlns:xlink="http://www.w3.org/1999/xlink" xmlns:svgjs="http://svgjs.com/svgjs" version="1.1" width="512" height="512" x="0" y="0" viewBox="0 0 512 512" style="enable-background:new 0 0 512 512" xml:space="preserve" class=""><g><g xmlns="http://www.w3.org/2000/svg" id="Outline"><path d="M24.2,359.8A28,28,0,0,1,44,312H56V260a170.868,170.868,0,0,1,50.383-121.617A172.8,172.8,0,0,1,174.8,96.392l4.947,15.216A156.717,156.717,0,0,0,117.7,149.7,154.973,154.973,0,0,0,72,260v52a16.019,16.019,0,0,1-16,16H44a12,12,0,0,0,0,24H56a16.019,16.019,0,0,1,16,16v8h1.373a46.321,46.321,0,0,0,32.97-13.656l11.314,11.312A62.214,62.214,0,0,1,73.373,392H72v8a40.045,40.045,0,0,0,40,40h40a8,8,0,0,1,8,8v32H296v-7.98a118.334,118.334,0,0,1,34.53-83.2,181.931,181.931,0,0,0,46.517-79.007l15.388,4.382a197.954,197.954,0,0,1-50.606,85.955A102.218,102.218,0,0,0,312,472.02V488a8,8,0,0,1-8,8H152a8,8,0,0,1-8-8V456H112a56.063,56.063,0,0,1-56-56V368H44A27.816,27.816,0,0,1,24.2,359.8ZM147.15,166.061l-10.445-12.122a141.712,141.712,0,0,0-14.051,13.943l12.038,10.539A125.411,125.411,0,0,1,147.15,166.061ZM89.6,238.793l15.816,2.414A124.108,124.108,0,0,1,126.044,189.5L112.9,180.379A140.182,140.182,0,0,0,89.6,238.793ZM152,320a32,32,0,1,0-21.336-55.85l10.671,11.922a15.939,15.939,0,1,1-4.426,6.594l-15.086-5.332A32.017,32.017,0,0,0,152,320ZM461.85,111.393a56.032,56.032,0,0,0-79.5-65.193,64,64,0,0,0-108.692,0,56.1,56.1,0,0,0-56.626,3.138l8.86,13.324a40.019,40.019,0,0,1,46.029,1.273,8,8,0,0,0,12.115-3.194,48,48,0,0,1,87.936,0,8,8,0,0,0,12.115,3.194,40,40,0,0,1,60.424,48.407,8,8,0,0,0,4.469,10.756,48.006,48.006,0,0,1,0,89.8,8,8,0,0,0-4.469,10.756,40,40,0,0,1-60.424,48.407,8,8,0,0,0-12.115,3.194,48,48,0,0,1-87.936,0,8,8,0,0,0-12.115-3.194,40,40,0,0,1-60.424-48.407,8,8,0,0,0-4.469-10.756,48.006,48.006,0,0,1,0-89.8,8,8,0,0,0,4.469-10.756,40.005,40.005,0,0,1,3.169-38.454l-13.324-8.86a56.079,56.079,0,0,0-7.188,46.365,63.991,63.991,0,0,0,0,113.214,56.032,56.032,0,0,0,79.5,65.193,64,64,0,0,0,108.692,0,56.026,56.026,0,0,0,79.5-65.193,63.991,63.991,0,0,0,0-113.214ZM264,80v32H232v16h32v32h16V128h32V112H280V80Zm160,32H344v16h80ZM298.343,170.343,272,196.686l-26.343-26.343-11.314,11.314L260.686,208l-26.343,26.343,11.314,11.314L272,219.314l26.343,26.343,11.314-11.314L283.314,208l26.343-26.343Zm112,0-64,64,11.314,11.314,64-64ZM352,176v16h16V176Zm64,64V224H400v16Z" fill="#ec661f" data-original="#000000" style="" class=""/></g></g></svg>
